<?xml version="1.0" encoding="UTF-8"?>
<svg id="Layer_1" xmlns="http://www.w3.org/2000/svg" version="1.1" viewBox="0 0 1000 1000">
  <circle fill="#C53045" cx="391.43" cy="489.56" r="131.27"></circle>
  <path fill="#C53045" d="M544.01,248.42c0,19.01-15.41,34.41-34.41,34.41-14.06,0-26.16-8.44-31.5-20.53-1.88-4.25-2.92-8.95-2.92-13.89,0-19.01,15.41-34.41,34.41-34.41s34.41,15.41,34.41,34.41Z"></path>
  <path fill="#C53045" d="M413.02,360.08c16.92-36.55,38.12-69.55,65.08-97.76l16.08,16.87c-26.96,28.22-39.85,50.84-56.77,87.39"></path>
  <path fill="#C53045" d="M537.15,269.03l12.36,36.12c27.54,69.67,57.65,129.32,91.51,174.42-18.11-53.31-46.73-111.13-72.35-173.41,109.08,42.59,155.14,87.4,166.21,149.16,8.31,64.2,5.8,124.32-4.69,181.46-50.43-2.17-114.54-45.45-186.17-112.63,14.04-47.71-1.75-96.53-42.21-146.26,1.81-21.73,9.43-44.03,20.9-66.7l-6.62-28.99"></path>
  <path fill="#C53045" d="M537.84,545.76c-30.15,59.93-80.68,97.38-162.69,100.12v42.24c74.3,150.96,245.67,108.33,267.5,0v-58.66c-30.77-15.97-66.94-47.39-104.81-83.69Z"></path>
</svg>